HIERARCHY
ROOT mixamorig:Hips
{
	OFFSET 0.000000 201.639420 0.000000
	CHANNELS 6 Xposition Yposition Zposition Xrotation Yrotation Zrotation
	JOINT mixamorig:Spine
	{
		OFFSET 0.006200 19.524994 -2.481800
		CHANNELS 3 Xrotation Yrotation Zrotation
		JOINT mixamorig:Spine1
		{
			OFFSET -0.000900 22.835007 -2.825400
			CHANNELS 3 Xrotation Yrotation Zrotation
			JOINT mixamorig:Spine2
			{
				OFFSET -0.020600 26.552490 -3.193300
				CHANNELS 3 Xrotation Yrotation Zrotation
				JOINT mixamorig:Neck
				{
					OFFSET -0.060000 30.701813 1.352200
					CHANNELS 3 Xrotation Yrotation Zrotation
					JOINT mixamorig:Head
					{
						OFFSET -0.087200 22.547607 3.670900
						CHANNELS 3 Xrotation Yrotation Zrotation
						JOINT mixamorig:HeadTop_End
						{
							OFFSET -0.830600 40.355194 7.893500
							CHANNELS 3 Xrotation Yrotation Zrotation
							End Site
							{
								OFFSET 0.000000 30.592346 0.000000
							}
						}
						JOINT mixamorig:RightEye
						{
							OFFSET -6.302100 18.118591 16.197100
							CHANNELS 3 Xrotation Yrotation Zrotation
							End Site
							{
								OFFSET 0.000000 30.592346 0.000000
							}
						}
						JOINT mixamorig:LeftEye
						{
							OFFSET 6.741500 18.382690 16.401899
							CHANNELS 3 Xrotation Yrotation Zrotation
							End Site
							{
								OFFSET 0.000000 30.592346 0.000000
							}
						}
					}
				}
				JOINT mixamorig:LeftShoulder
				{
					OFFSET 11.924900 18.230499 1.425400
					CHANNELS 3 Xrotation Yrotation Zrotation
					JOINT mixamorig:LeftArm
					{
						OFFSET 25.435989 -0.697632 -5.229300
						CHANNELS 3 Xrotation Yrotation Zrotation
						JOINT mixamorig:LeftForeArm
						{
							OFFSET 54.684776 0.000000 0.000000
							CHANNELS 3 Xrotation Yrotation Zrotation
							JOINT mixamorig:LeftHand
							{
								OFFSET 55.098175 0.000000 0.000000
								CHANNELS 3 Xrotation Yrotation Zrotation
								JOINT mixamorig:LeftHandMiddle1
								{
									OFFSET 23.369751 0.000000 0.000000
									CHANNELS 3 Xrotation Yrotation Zrotation
									JOINT mixamorig:LeftHandMiddle2
									{
										OFFSET 6.378677 0.000000 0.000000
										CHANNELS 3 Xrotation Yrotation Zrotation
										JOINT mixamorig:LeftHandMiddle3
										{
											OFFSET 6.148331 0.000000 0.000000
											CHANNELS 3 Xrotation Yrotation Zrotation
											JOINT mixamorig:LeftHandMiddle4
											{
												OFFSET 6.582504 0.000000 0.000000
												CHANNELS 3 Xrotation Yrotation Zrotation
												End Site
												{
													OFFSET -1.168900 6.395691 1.028606
												}
											}
										}
									}
								}
								JOINT mixamorig:LeftHandThumb1
								{
									OFFSET 7.235672 -3.848206 5.434273
									CHANNELS 3 Xrotation Yrotation Zrotation
									JOINT mixamorig:LeftHandThumb2
									{
										OFFSET 6.568451 -3.792297 3.792300
										CHANNELS 3 Xrotation Yrotation Zrotation
										JOINT mixamorig:LeftHandThumb3
										{
											OFFSET 6.063080 -3.500519 3.500518
											CHANNELS 3 Xrotation Yrotation Zrotation
											JOINT mixamorig:LeftHandThumb4
											{
												OFFSET 4.793182 -2.767334 2.767349
												CHANNELS 3 Xrotation Yrotation Zrotation
												End Site
												{
													OFFSET 0.101639 6.054260 1.275483
												}
											}
										}
									}
								}
								JOINT mixamorig:LeftHandIndex1
								{
									OFFSET 23.101074 -0.309540 4.992809
									CHANNELS 3 Xrotation Yrotation Zrotation
									JOINT mixamorig:LeftHandIndex2
									{
										OFFSET 6.226883 0.000000 0.000000
										CHANNELS 3 Xrotation Yrotation Zrotation
										JOINT mixamorig:LeftHandIndex3
										{
											OFFSET 6.094330 0.000000 0.000000
											CHANNELS 3 Xrotation Yrotation Zrotation
											JOINT mixamorig:LeftHandIndex4
											{
												OFFSET 5.482605 0.000000 0.000000
												CHANNELS 3 Xrotation Yrotation Zrotation
												End Site
												{
													OFFSET -1.427902 5.233032 0.797164
												}
											}
										}
									}
								}
								JOINT mixamorig:LeftHandRing1
								{
									OFFSET 22.299240 0.021149 -3.964172
									CHANNELS 3 Xrotation Yrotation Zrotation
									JOINT mixamorig:LeftHandRing2
									{
										OFFSET 6.321869 0.000000 0.000000
										CHANNELS 3 Xrotation Yrotation Zrotation
										JOINT mixamorig:LeftHandRing3
										{
											OFFSET 5.899796 0.000000 0.000000
											CHANNELS 3 Xrotation Yrotation Zrotation
											JOINT mixamorig:LeftHandRing4
											{
												OFFSET 6.517899 0.000000 0.000000
												CHANNELS 3 Xrotation Yrotation Zrotation
												End Site
												{
													OFFSET -1.637299 6.232208 0.980890
												}
											}
										}
									}
								}
								JOINT mixamorig:LeftHandPinky1
								{
									OFFSET 20.463791 -0.302338 -8.562233
									CHANNELS 3 Xrotation Yrotation Zrotation
									JOINT mixamorig:LeftHandPinky2
									{
										OFFSET 6.908646 0.000000 0.000000
										CHANNELS 3 Xrotation Yrotation Zrotation
										JOINT mixamorig:LeftHandPinky3
										{
											OFFSET 4.622849 0.000000 0.000000
											CHANNELS 3 Xrotation Yrotation Zrotation
											JOINT mixamorig:LeftHandPinky4
											{
												OFFSET 5.216080 0.000000 0.000000
												CHANNELS 3 Xrotation Yrotation Zrotation
												End Site
												{
													OFFSET -0.606308 5.116241 0.814926
												}
											}
										}
									}
								}
							}
						}
					}
				}
				JOINT mixamorig:RightShoulder
				{
					OFFSET -12.001300 18.284088 1.348900
					CHANNELS 3 Xrotation Yrotation Zrotation
					JOINT mixamorig:RightArm
					{
						OFFSET -25.308500 -0.751312 -5.164599
						CHANNELS 3 Xrotation Yrotation Zrotation
						JOINT mixamorig:RightForeArm
						{
							OFFSET -54.684429 0.000000 0.000000
							CHANNELS 3 Xrotation Yrotation Zrotation
							JOINT mixamorig:RightHand
							{
								OFFSET -55.150291 0.000000 0.000000
								CHANNELS 3 Xrotation Yrotation Zrotation
								JOINT mixamorig:RightHandMiddle1
								{
									OFFSET -23.317566 0.000000 0.000000
									CHANNELS 3 Xrotation Yrotation Zrotation
									JOINT mixamorig:RightHandMiddle2
									{
										OFFSET -6.378403 0.000000 0.000000
										CHANNELS 3 Xrotation Yrotation Zrotation
										JOINT mixamorig:RightHandMiddle3
										{
											OFFSET -6.148193 0.000000 0.000000
											CHANNELS 3 Xrotation Yrotation Zrotation
											JOINT mixamorig:RightHandMiddle4
											{
												OFFSET -6.583389 0.000000 0.000000
												CHANNELS 3 Xrotation Yrotation Zrotation
												End Site
												{
													OFFSET 1.171692 6.395905 1.029786
												}
											}
										}
									}
								}
								JOINT mixamorig:RightHandThumb1
								{
									OFFSET -7.190521 -3.860474 5.435846
									CHANNELS 3 Xrotation Yrotation Zrotation
									JOINT mixamorig:RightHandThumb2
									{
										OFFSET -6.567429 -3.791718 3.791708
										CHANNELS 3 Xrotation Yrotation Zrotation
										JOINT mixamorig:RightHandThumb3
										{
											OFFSET -6.062469 -3.500153 3.500166
											CHANNELS 3 Xrotation Yrotation Zrotation
											JOINT mixamorig:RightHandThumb4
											{
												OFFSET -4.792618 -2.767029 2.767022
												CHANNELS 3 Xrotation Yrotation Zrotation
												End Site
												{
													OFFSET -0.100327 6.053253 1.276754
												}
											}
										}
									}
								}
								JOINT mixamorig:RightHandIndex1
								{
									OFFSET -23.048981 -0.310791 4.992554
									CHANNELS 3 Xrotation Yrotation Zrotation
									JOINT mixamorig:RightHandIndex2
									{
										OFFSET -6.227539 0.000000 0.000000
										CHANNELS 3 Xrotation Yrotation Zrotation
										JOINT mixamorig:RightHandIndex3
										{
											OFFSET -6.095047 0.000000 0.000000
											CHANNELS 3 Xrotation Yrotation Zrotation
											JOINT mixamorig:RightHandIndex4
											{
												OFFSET -5.484772 0.000000 0.000000
												CHANNELS 3 Xrotation Yrotation Zrotation
												End Site
												{
													OFFSET 1.420593 5.237305 0.797056
												}
											}
										}
									}
								}
								JOINT mixamorig:RightHandRing1
								{
									OFFSET -22.246323 0.020569 -3.963762
									CHANNELS 3 Xrotation Yrotation Zrotation
									JOINT mixamorig:RightHandRing2
									{
										OFFSET -6.322128 0.000000 0.000000
										CHANNELS 3 Xrotation Yrotation Zrotation
										JOINT mixamorig:RightHandRing3
										{
											OFFSET -5.900024 0.000000 0.000000
											CHANNELS 3 Xrotation Yrotation Zrotation
											JOINT mixamorig:RightHandRing4
											{
												OFFSET -6.518356 0.000000 0.000000
												CHANNELS 3 Xrotation Yrotation Zrotation
												End Site
												{
													OFFSET 1.636398 6.232697 0.982186
												}
											}
										}
									}
								}
								JOINT mixamorig:RightHandPinky1
								{
									OFFSET -20.411011 -0.303314 -8.561701
									CHANNELS 3 Xrotation Yrotation Zrotation
									JOINT mixamorig:RightHandPinky2
									{
										OFFSET -6.907349 0.000000 0.000000
										CHANNELS 3 Xrotation Yrotation Zrotation
										JOINT mixamorig:RightHandPinky3
										{
											OFFSET -4.623840 0.000000 0.000000
											CHANNELS 3 Xrotation Yrotation Zrotation
											JOINT mixamorig:RightHandPinky4
											{
												OFFSET -5.218353 0.000000 0.000000
												CHANNELS 3 Xrotation Yrotation Zrotation
												End Site
												{
													OFFSET 0.602097 5.118835 0.816273
												}
											}
										}
									}
								}
							}
						}
					}
				}
			}
		}
	}
	JOINT mixamorig:LeftUpLeg
	{
		OFFSET 18.168400 -13.561905 -0.039000
		CHANNELS 3 Xrotation Yrotation Zrotation
		JOINT mixamorig:LeftLeg
		{
			OFFSET 0.577358 -80.825211 -3.695000
			CHANNELS 3 Xrotation Yrotation Zrotation
			JOINT mixamorig:LeftFoot
			{
				OFFSET -0.577356 -83.370262 -6.520700
				CHANNELS 3 Xrotation Yrotation Zrotation
				JOINT mixamorig:LeftToeBase
				{
					OFFSET 0.750401 -20.798306 25.135401
					CHANNELS 3 Xrotation Yrotation Zrotation
					JOINT mixamorig:LeftToe_End
					{
						OFFSET -0.000500 0.001200 19.917799
						CHANNELS 3 Xrotation Yrotation Zrotation
						End Site
						{
							OFFSET 0.000000 19.917805 0.000000
						}
					}
				}
			}
		}
	}
	JOINT mixamorig:RightUpLeg
	{
		OFFSET -18.162500 -13.585098 -0.041000
		CHANNELS 3 Xrotation Yrotation Zrotation
		JOINT mixamorig:RightLeg
		{
			OFFSET -0.595024 -80.945297 -3.631900
			CHANNELS 3 Xrotation Yrotation Zrotation
			JOINT mixamorig:RightFoot
			{
				OFFSET 0.595024 -83.218193 -6.561200
				CHANNELS 3 Xrotation Yrotation Zrotation
				JOINT mixamorig:RightToeBase
				{
					OFFSET -0.753601 -20.807106 25.115000
					CHANNELS 3 Xrotation Yrotation Zrotation
					JOINT mixamorig:RightToe_End
					{
						OFFSET 0.000299 0.001700 19.918200
						CHANNELS 3 Xrotation Yrotation Zrotation
						End Site
						{
							OFFSET 0.000000 19.918203 0.000000
						}
					}
				}
			}
		}
	}
}
MOTION
Frames: 4
Frame Time: 0.033333
12.297067 198.182220 3.972281 -1.244898 23.507524 -2.857250 1.710919 1.953867 2.922352 1.294699 6.846050 5.613434 1.299697 7.363017 5.537800 5.727067 1.416445 -2.014991 33.635615 21.030603 -16.955122 -0.000002 -0.000000 -0.000001 -0.000002 -0.000000 -0.000001 -0.000002 -0.000000 -0.000001 0.349412 -12.780170 -12.586726 -10.828783 -32.783931 -28.271198 0.000049 -119.540509 0.000040 -30.847948 -12.818853 30.687586 3.524046 10.895353 -51.086663 3.557429 6.206889 -68.547703 1.960233 4.416842 -47.216544 -0.000000 0.000000 -0.000000 18.491270 -0.461404 10.916087 1.284015 32.757618 -3.088949 2.117140 9.311155 -0.358626 0.000003 0.000000 0.000003 1.845570 7.810957 -42.854471 2.529806 5.552725 -55.570224 1.535705 3.957130 -45.078463 0.000001 -0.000002 -0.000001 6.298996 12.213160 -62.409235 4.806419 5.427755 -75.489757 2.842692 4.349292 -54.289660 -0.000001 -0.000001 -0.000001 8.399668 18.098490 -72.639253 4.331712 5.893379 -80.747576 2.791149 5.435146 -55.539711 -0.000005 -0.000002 -0.000001 1.388210 6.797681 -0.292602 -22.977443 41.335482 35.407086 -0.000019 138.816724 0.000012 -23.633190 -20.707269 -14.388888 0.911480 -8.767198 15.815484 0.920766 -3.993811 33.432246 0.216695 -1.689630 15.906367 0.000002 -0.000003 -0.000006 19.243761 2.582998 -11.567724 3.481380 -31.942018 8.619656 1.444239 -8.589140 1.213294 0.000002 -0.000001 0.000000 0.340169 -4.675628 7.843845 0.387025 -2.823580 20.566227 -0.193118 -0.216336 13.843947 0.000003 -0.000001 -0.000001 2.553568 -11.670323 26.896727 1.712124 -3.888208 40.235996 -0.157913 0.034741 17.820672 0.000002 0.000000 0.000001 5.582524 -16.027741 36.941174 1.378887 -4.077874 45.648757 -0.727802 -0.248515 22.131181 -0.000003 -0.000002 0.000001 -23.215000 10.095816 8.250224 25.911171 -2.985801 1.610412 -0.750977 -2.918873 -0.666279 -2.733836 0.000007 -0.000001 0.000000 0.000003 -0.000000 0.049143 -6.542606 7.738730 10.438506 -8.539753 1.177963 -10.745064 -16.256093 -5.722778 -1.166448 -0.000007 -0.000000 -0.000000 -0.000001 -0.000000 
12.034241 198.212387 3.676745 -1.318780 22.742004 -2.948610 1.727461 1.896415 2.937789 1.331590 6.735717 5.637107 1.336123 7.252525 5.560949 5.792517 1.560807 -1.942529 33.764989 21.890936 -17.003660 -0.000003 -0.000000 0.000001 -0.000003 -0.000000 0.000001 -0.000003 -0.000000 0.000001 0.337758 -13.020122 -12.651269 -11.016511 -32.561428 -28.671252 0.000005 -119.892797 -0.000002 -29.586020 -14.038715 31.248515 3.461171 10.866674 -50.422546 3.497016 6.181539 -67.889567 1.911217 4.373666 -46.560174 -0.000002 0.000007 0.000002 18.491272 -0.461408 10.916084 1.284013 32.757621 -3.088946 2.117140 9.311154 -0.358627 0.000002 0.000000 0.000001 1.801176 7.762014 -42.195918 2.475376 5.515143 -54.912423 1.490762 3.908434 -44.422867 0.000003 -0.000000 -0.000001 6.220448 12.216058 -61.742923 4.741419 5.417247 -74.828404 2.786652 4.316422 -53.632807 0.000001 0.000001 0.000002 8.334800 18.077812 -71.966350 4.267735 5.877006 -80.088749 2.734626 5.401141 -54.881803 -0.000004 0.000001 0.000002 1.387785 6.197184 -1.292872 -23.464256 41.606350 33.244327 -0.000013 139.354683 0.000012 -27.908797 -22.607110 -14.730201 0.911466 -8.767198 15.815460 0.920779 -3.993812 33.432229 0.216696 -1.689625 15.906372 -0.000001 -0.000002 -0.000001 19.187412 2.416409 -11.542501 3.282189 -32.032375 8.109897 1.496305 -8.572932 1.204460 -0.000002 -0.000001 0.000002 0.340151 -4.675626 7.843842 0.387029 -2.823568 20.566226 -0.193127 -0.216343 13.843937 0.000002 0.000001 -0.000000 2.553556 -11.670315 26.896716 1.712117 -3.888214 40.236009 -0.157895 0.034739 17.820676 0.000003 -0.000001 0.000003 5.582504 -16.027741 36.941150 1.378900 -4.077876 45.648743 -0.727790 -0.248502 22.131182 -0.000001 0.000001 0.000002 -23.174717 10.121960 8.485679 25.851549 -3.024612 1.652155 -0.681567 -2.235075 -0.831650 -2.730247 -0.000027 -0.000001 0.000000 0.000000 -0.000000 0.140578 -6.376802 7.765679 10.157034 -8.561350 1.364184 -10.506085 -15.579037 -5.861678 -1.105043 0.000002 -0.000002 -0.000000 0.000000 -0.000000 
11.784368 198.199005 3.417887 -1.435677 21.801255 -3.045175 1.737235 1.797598 2.949112 1.358991 6.537560 5.654181 1.362818 7.054321 5.578141 5.827453 1.699872 -1.839841 33.754539 22.784338 -16.975715 0.000002 0.000000 -0.000003 0.000002 0.000000 -0.000003 0.000002 0.000000 -0.000003 0.331714 -13.270231 -12.644572 -11.300518 -32.121843 -29.176529 0.000029 -120.245071 0.000033 -28.171156 -15.385744 32.038232 3.406800 10.841695 -49.831780 3.443582 6.158442 -67.304513 1.867990 4.334771 -45.976227 -0.000003 0.000001 0.000001 18.491270 -0.461401 10.916074 1.284020 32.757611 -3.088946 2.117138 9.311156 -0.358623 -0.000003 0.000001 0.000002 1.762203 7.718058 -41.610008 2.427295 5.481150 -54.327147 1.451220 3.864688 -43.839566 0.000000 0.000001 -0.000001 6.150846 12.218112 -61.150048 4.683693 5.407257 -74.239881 2.737130 4.286646 -53.048474 -0.000001 -0.000002 -0.000001 8.277417 18.058715 -71.367677 4.210930 5.861767 -79.502418 2.684646 5.370345 -54.296428 -0.000003 0.000001 0.000003 1.361436 5.408282 -2.374435 -24.260058 41.824657 31.263494 0.000004 139.884856 -0.000010 -32.817939 -24.364198 -15.234182 0.911474 -8.767199 15.815477 0.920764 -3.993799 33.432236 0.216703 -1.689641 15.906368 0.000002 0.000001 -0.000002 19.130576 2.250310 -11.511620 3.089065 -32.116694 7.617541 1.546528 -8.557328 1.195926 0.000001 0.000001 -0.000001 0.340145 -4.675631 7.843845 0.387032 -2.823562 20.566232 -0.193118 -0.216357 13.843933 0.000002 -0.000001 -0.000004 2.553556 -11.670314 26.896739 1.712116 -3.888222 40.235992 -0.157891 0.034737 17.820679 0.000000 0.000003 -0.000000 5.582514 -16.027734 36.941170 1.378899 -4.077869 45.648753 -0.727788 -0.248512 22.131187 0.000001 0.000002 -0.000000 -23.023137 10.248167 8.832866 25.745152 -3.072110 1.626107 -0.807617 -1.535798 -1.062124 -2.485334 -0.000009 0.000001 0.000000 -0.000000 -0.000000 0.321486 -6.281241 7.689401 9.882306 -8.500948 1.665100 -10.233497 -14.689191 -5.731112 -0.937366 0.000001 0.000000 -0.000000 -0.000001 0.000000 
11.567624 198.112167 3.222487 -1.570060 20.710411 -3.174916 1.733187 1.668719 2.951415 1.358616 6.266708 5.686101 1.361860 6.783194 5.608222 5.854858 1.843645 -1.729695 33.595518 23.710532 -16.805054 -0.000001 0.000001 -0.000001 -0.000001 0.000001 -0.000001 -0.000001 0.000001 -0.000001 0.326646 -13.478813 -12.639514 -11.585770 -31.425687 -29.707078 0.000049 -120.637369 0.000042 -26.589723 -16.593919 32.925388 3.353164 10.816729 -49.237048 3.390012 6.134611 -66.715382 1.824874 4.295174 -45.388236 -0.000004 0.000001 0.000002 18.491265 -0.461416 10.916066 1.284009 32.757615 -3.088949 2.117138 9.311158 -0.358629 -0.000001 0.000002 0.000001 1.723402 7.673391 -41.020064 2.379262 5.446448 -53.737852 1.411848 3.820229 -43.252207 0.000003 -0.000003 0.000002 6.081476 12.219905 -60.553097 4.625663 5.396614 -73.647246 2.687607 4.256178 -52.460156 0.000002 -0.000001 -0.000003 8.219803 18.038869 -70.764872 4.153892 5.845847 -78.911935 2.634645 5.338823 -53.707017 0.000003 -0.000002 0.000001 1.320070 4.610115 -3.453361 -25.258152 41.756829 29.451803 0.000019 140.476036 -0.000017 -37.438272 -26.200331 -16.000635 0.911489 -8.767209 15.815479 0.920768 -3.993813 33.432219 0.216695 -1.689620 15.906380 0.000002 -0.000001 0.000001 19.073711 2.085662 -11.475932 2.902609 -32.195080 7.143855 1.595147 -8.542751 1.189972 -0.000001 0.000003 0.000002 0.340156 -4.675632 7.843856 0.387032 -2.823568 20.566222 -0.193121 -0.216350 13.843937 0.000002 -0.000000 0.000001 2.553562 -11.670332 26.896733 1.712117 -3.888203 40.235992 -0.157910 0.034742 17.820684 -0.000003 -0.000001 0.000003 5.582514 -16.027741 36.941170 1.378885 -4.077882 45.648739 -0.727771 -0.248506 22.131160 0.000000 0.000000 -0.000000 -22.756071 10.414310 9.238958 25.592560 -3.120217 1.612519 -1.226672 -0.751336 -1.426594 -1.942241 -0.000000 -0.000000 0.000000 -0.000002 0.000000 0.536464 -6.209838 7.547797 9.686140 -8.412282 2.047515 -9.995212 -13.603458 -5.330164 -0.666543 0.000000 -0.000001 -0.000000 -0.000001 -0.000000 
